<svg xmlns="http://www.w3.org/2000/svg" width="176" height="78" viewBox="0 0 176 78">
    <g transform="translate(-4.356 -15.595)">
        <path
            d="M82.479,50.833H69.922V17.689L57.461,50.832H46.671L34.082,16.919V50.832h-14.9v-20.3H4.923a19.488,19.488,0,0,1-3.513-.884,14.563,14.563,0,0,1-6.09-3.823C-8.2,21.813-8.791,18.764-8.618,14.854q.015-.334.028-.679c.143-3.572.32-8.017,3.91-12.542A17.58,17.58,0,0,1,1.555-3.192,17.207,17.207,0,0,1,4.923-4.4H36.33L51.777,34.133,67.192-4.4H82.479V50.832ZM18.2,6.291c-2.393,0-8.267.151-11.112,1.547-1.741.854-2.832,3.2-2.781,5.974.038,2.074.789,4.607,2.781,5.495s5.439,1.07,7.985,1.07c2.453,0,4.454-.17,4.474-.171V6.308C19.543,6.308,19.025,6.291,18.2,6.291Z"
            transform="translate(20 28.382)" />
        <path
            d="M26.635,54.844V40.561a.643.643,0,0,1,1.285,0V54.844C27.921,55.2,26.635,55.2,26.635,54.844Zm-2.246-6.809a.662.662,0,0,1-.252-.052,5.29,5.29,0,0,1-3.03-4.806,6.039,6.039,0,0,1,2.912-5.235A.643.643,0,0,1,24.757,39a4.738,4.738,0,0,0-2.366,4.181A3.973,3.973,0,0,0,24.639,46.8a.642.642,0,0,1-.25,1.234Zm5.776,0a.644.644,0,0,1-.389-1.157c1.65-1.25,2.383-2.15,2.383-4.169,0-2.5-2.462-4.189-5.069-5.974-2.932-2.009-5.961-4.085-5.961-7.627a5.043,5.043,0,0,1,2.953-4.588.644.644,0,0,1,.53,1.173,3.752,3.752,0,0,0-2.2,3.417c0,2.864,2.625,4.663,5.4,6.568s5.629,3.855,5.629,7.033c0,2.521-1.016,3.769-2.892,5.194A.658.658,0,0,1,30.165,48.035Zm0-13.107a.644.644,0,0,1-.389-1.157c1.65-1.248,2.383-2.146,2.383-4.167,0-2.232-1.964-3.817-4.24-5.4v7.434a.643.643,0,1,1-1.285,0V23.32c-2.782-1.914-5.506-3.955-5.506-7.315a5.039,5.039,0,0,1,2.953-4.588.644.644,0,1,1,.53,1.173,3.752,3.752,0,0,0-2.2,3.417c0,2.453,1.925,4.124,4.221,5.749V9.019a4.214,4.214,0,1,1,1.285,0V22.641c2.735,1.873,5.526,3.824,5.526,6.963,0,2.523-1.016,3.773-2.892,5.194A.649.649,0,0,1,30.165,34.928ZM27.278,7.78c.018,0,.036,0,.054,0a2.928,2.928,0,1,0-.107,0C27.242,7.78,27.26,7.78,27.278,7.78Zm5.356,15.57a.643.643,0,0,1-.273-1.225,6.6,6.6,0,0,0,3.371-5.531c0-3.382,1.891-5.242,5.319-5.242H52.274a.643.643,0,0,1,0,1.285H41.051c-2.1,0-3.348.734-3.817,2.285H48.7a.643.643,0,0,1,0,1.285H37.026c-.007.125-.009.254-.009.386a6.886,6.886,0,0,1-.293,1.9h8.37a.643.643,0,1,1,0,1.285H36.234a7.315,7.315,0,0,1-3.324,3.507A.63.63,0,0,1,32.634,23.35Zm-10.712,0a.64.64,0,0,1-.273-.061,7.3,7.3,0,0,1-3.323-3.507h-8.9a.643.643,0,1,1,0-1.285h8.409a6.891,6.891,0,0,1-.291-1.9c0-.132,0-.261-.009-.386H5.854a.644.644,0,0,1,0-1.287H17.326c-.47-1.552-1.714-2.285-3.817-2.285H2.283a.643.643,0,0,1,0-1.285H13.509c3.007,0,4.828,1.43,5.233,4.058a.723.723,0,0,1,.018.127,7.969,7.969,0,0,1,.068,1.057A6.6,6.6,0,0,0,22.2,22.125a.643.643,0,0,1-.273,1.225Zm8.243-1.784A.642.642,0,0,1,29.8,20.4a4.734,4.734,0,0,0,2.364-4.181,3.975,3.975,0,0,0-2.248-3.624.643.643,0,0,1,.507-1.182,5.289,5.289,0,0,1,3.028,4.806,6.043,6.043,0,0,1-2.912,5.235A.657.657,0,0,1,30.165,21.567Z"
            transform="translate(111.761 23.72)" stroke="#000" stroke-width="1" />
        <rect width="176" height="78" transform="translate(4.356 15.595)" fill="none" />
    </g>
</svg>